<svg width="1555" height="288" viewBox="0 0 1555 288" fill="none" xmlns="http://www.w3.org/2000/svg">
<g clip-path="url(#clip0_161_0)">
<rect width="1555" height="288" rx="100" fill="black"/>
<path d="M113.476 20.4803C134.697 20.4804 148.807 32.8306 156.226 41.745C156.366 41.5771 156.509 41.4093 156.654 41.2391V176.523H136.065C120.922 166.413 104.727 154.703 91.8276 139.432C74.0532 118.398 65.0982 96.8213 64.5073 73.5741V68.9364C65.4265 42.1007 87.1436 20.4803 113.476 20.4803Z" fill="#E1CC6D"/>
<path d="M197.752 20.4803C176.532 20.4804 162.421 32.8306 155.002 41.745C154.862 41.5771 154.719 41.4093 154.574 41.2391V176.523H175.163C190.306 166.413 206.501 154.703 219.401 139.432C237.175 118.398 246.13 96.8213 246.721 73.5741V68.9364C245.802 42.1007 224.085 20.4803 197.752 20.4803Z" fill="#C6B155"/>
<path d="M115.72 122.859C113.836 121.513 111.683 120.302 109.664 118.956C111.683 120.436 113.836 121.513 115.72 122.859ZM156.227 165.519C127.293 121.378 77.9045 92.1758 21.6526 92.1758C21.6526 163.769 66.8694 224.327 129.716 246.801C138.194 249.897 147.076 252.184 156.227 253.665C165.378 252.05 174.125 249.762 182.738 246.801C245.584 224.327 290.801 163.769 290.801 92.1758C234.549 92.1758 185.16 121.378 156.227 165.519Z" fill="black"/>
<path d="M115.72 138.946C113.836 137.6 111.682 136.389 109.664 135.043C111.682 136.523 113.836 137.6 115.72 138.946ZM156.226 181.606C127.293 137.466 77.9043 108.263 21.6523 108.263C21.6523 179.856 66.8692 240.415 129.715 262.888C138.193 265.984 147.075 268.271 156.226 269.752C165.377 268.137 174.125 265.849 182.737 262.888C245.584 240.415 290.8 179.856 290.8 108.263C234.548 108.263 185.16 137.466 156.226 181.606Z" fill="#843EF3"/>
<path d="M374.714 77.4286H387.571V90.2857H374.714V77.4286ZM361.857 77.4286H374.714V90.2857H361.857V77.4286ZM361.857 90.2857H374.714V103.143H361.857V90.2857ZM374.714 90.2857H387.571V103.143H374.714V90.2857ZM387.571 90.2857H400.429V103.143H387.571V90.2857ZM387.571 77.4286H400.429V90.2857H387.571V77.4286ZM400.429 77.4286H413.286V90.2857H400.429V77.4286ZM413.286 77.4286H426.143V90.2857H413.286V77.4286ZM413.286 90.2857H426.143V103.143H413.286V90.2857ZM400.429 90.2857H413.286V103.143H400.429V90.2857ZM413.286 103.143H426.143V116H413.286V103.143ZM426.143 90.2857H439V103.143H426.143V90.2857ZM426.143 103.143H439V116H426.143V103.143ZM426.143 167.429H439V180.286H426.143V167.429ZM426.143 180.286H439V193.143H426.143V180.286ZM413.286 180.286H426.143V193.143H413.286V180.286ZM413.286 167.429H426.143V180.286H413.286V167.429ZM400.429 180.286H413.286V193.143H400.429V180.286ZM413.286 193.143H426.143V206H413.286V193.143ZM400.429 193.143H413.286V206H400.429V193.143ZM387.571 193.143H400.429V206H387.571V193.143ZM387.571 180.286H400.429V193.143H387.571V180.286ZM374.714 193.143H387.571V206H374.714V193.143ZM361.857 193.143H374.714V206H361.857V193.143ZM361.857 180.286H374.714V193.143H361.857V180.286ZM374.714 180.286H387.571V193.143H374.714V180.286ZM374.714 167.429H387.571V180.286H374.714V167.429ZM361.857 167.429H374.714V180.286H361.857V167.429ZM349 180.286H361.857V193.143H349V180.286ZM349 167.429H361.857V180.286H349V167.429ZM349 154.571H361.857V167.429H349V154.571ZM349 141.714H361.857V154.571H349V141.714ZM349 128.857H361.857V141.714H349V128.857ZM349 116H361.857V128.857H349V116ZM349 103.143H361.857V116H349V103.143ZM361.857 103.143H374.714V116H361.857V103.143ZM349 90.2857H361.857V103.143H349V90.2857ZM374.714 103.143H387.571V116H374.714V103.143ZM361.857 116H374.714V128.857H361.857V116ZM361.857 128.857H374.714V141.714H361.857V128.857ZM361.857 141.714H374.714V154.571H361.857V141.714ZM361.857 154.571H374.714V167.429H361.857V154.571ZM426.143 154.571H439V167.429H426.143V154.571ZM413.286 154.571H426.143V167.429H413.286V154.571ZM413.286 141.714H426.143V154.571H413.286V141.714ZM426.143 141.714H439V154.571H426.143V141.714ZM426.143 128.857H439V141.714H426.143V128.857ZM413.286 128.857H426.143V141.714H413.286V128.857ZM400.429 128.857H413.286V141.714H400.429V128.857ZM387.571 128.857H400.429V141.714H387.571V128.857ZM387.571 141.714H400.429V154.571H387.571V141.714ZM400.429 141.714H413.286V154.571H400.429V141.714ZM451.891 193.143H464.748V206H451.891V193.143ZM464.748 193.143H477.605V206H464.748V193.143ZM464.748 180.286H477.605V193.143H464.748V180.286ZM464.748 167.429H477.605V180.286H464.748V167.429ZM464.748 154.571H477.605V167.429H464.748V154.571ZM464.748 141.714H477.605V154.571H464.748V141.714ZM464.748 128.857H477.605V141.714H464.748V128.857ZM451.891 128.857H464.748V141.714H451.891V128.857ZM451.891 141.714H464.748V154.571H451.891V141.714ZM451.891 154.571H464.748V167.429H451.891V154.571ZM451.891 167.429H464.748V180.286H451.891V167.429ZM451.891 180.286H464.748V193.143H451.891V180.286ZM451.891 116H464.748V128.857H451.891V116ZM464.748 116H477.605V128.857H464.748V116ZM464.748 103.143H477.605V116H464.748V103.143ZM464.748 90.2857H477.605V103.143H464.748V90.2857ZM464.748 77.4286H477.605V90.2857H464.748V77.4286ZM451.891 77.4286H464.748V90.2857H451.891V77.4286ZM451.891 90.2857H464.748V103.143H451.891V90.2857ZM451.891 103.143H464.748V116H451.891V103.143ZM490.562 77.4286H503.42V90.2857H490.562V77.4286ZM503.42 77.4286H516.277V90.2857H503.42V77.4286ZM503.42 90.2857H516.277V103.143H503.42V90.2857ZM503.42 103.143H516.277V116H503.42V103.143ZM503.42 116H516.277V128.857H503.42V116ZM490.562 116H503.42V128.857H490.562V116ZM490.562 103.143H503.42V116H490.562V103.143ZM490.562 90.2857H503.42V103.143H490.562V90.2857ZM490.562 128.857H503.42V141.714H490.562V128.857ZM490.562 141.714H503.42V154.571H490.562V141.714ZM490.562 154.571H503.42V167.429H490.562V154.571ZM503.42 141.714H516.277V154.571H503.42V141.714ZM503.42 128.857H516.277V141.714H503.42V128.857ZM503.42 154.571H516.277V167.429H503.42V154.571ZM503.42 167.429H516.277V180.286H503.42V167.429ZM490.562 180.286H503.42V193.143H490.562V180.286ZM490.562 167.429H503.42V180.286H490.562V167.429ZM490.562 193.143H503.42V206H490.562V193.143ZM503.42 193.143H516.277V206H503.42V193.143ZM503.42 180.286H516.277V193.143H503.42V180.286ZM516.277 77.4286H529.134V90.2857H516.277V77.4286ZM529.134 77.4286H541.991V90.2857H529.134V77.4286ZM541.991 77.4286H554.848V90.2857H541.991V77.4286ZM554.848 77.4286H567.705V90.2857H554.848V77.4286ZM541.991 90.2857H554.848V103.143H541.991V90.2857ZM529.134 90.2857H541.991V103.143H529.134V90.2857ZM516.277 90.2857H529.134V103.143H516.277V90.2857ZM516.277 141.714H529.134V154.571H516.277V141.714ZM529.134 128.857H541.991V141.714H529.134V128.857ZM516.277 128.857H529.134V141.714H516.277V128.857ZM529.134 141.714H541.991V154.571H529.134V141.714ZM554.848 90.2857H567.705V103.143H554.848V90.2857ZM541.991 128.857H554.848V141.714H541.991V128.857ZM541.991 141.714H554.848V154.571H541.991V141.714ZM580.562 77.4286H593.42V90.2857H580.562V77.4286ZM593.42 77.4286H606.277V90.2857H593.42V77.4286ZM606.277 77.4286H619.134V90.2857H606.277V77.4286ZM619.134 77.4286H631.991V90.2857H619.134V77.4286ZM631.991 77.4286H644.848V90.2857H631.991V77.4286ZM644.848 77.4286H657.705V90.2857H644.848V77.4286ZM644.848 90.2857H657.705V103.143H644.848V90.2857ZM631.991 90.2857H644.848V103.143H631.991V90.2857ZM619.134 90.2857H631.991V103.143H619.134V90.2857ZM606.277 90.2857H619.134V103.143H606.277V90.2857ZM593.42 90.2857H606.277V103.143H593.42V90.2857ZM580.562 90.2857H593.42V103.143H580.562V90.2857ZM606.277 103.143H619.134V116H606.277V103.143ZM606.277 116H619.134V128.857H606.277V116ZM606.277 128.857H619.134V141.714H606.277V128.857ZM606.277 141.714H619.134V154.571H606.277V141.714ZM606.277 154.571H619.134V167.429H606.277V154.571ZM606.277 167.429H619.134V180.286H606.277V167.429ZM619.134 154.571H631.991V167.429H619.134V154.571ZM619.134 141.714H631.991V154.571H619.134V141.714ZM619.134 128.857H631.991V141.714H619.134V128.857ZM619.134 116H631.991V128.857H619.134V116ZM619.134 103.143H631.991V116H619.134V103.143ZM619.134 167.429H631.991V180.286H619.134V167.429ZM619.134 180.286H631.991V193.143H619.134V180.286ZM619.134 193.143H631.991V206H619.134V193.143ZM606.277 193.143H619.134V206H606.277V193.143ZM606.277 180.286H619.134V193.143H606.277V180.286ZM747.605 77.4286H760.462V90.2857H747.605V77.4286ZM734.748 77.4286H747.605V90.2857H734.748V77.4286ZM734.748 90.2857H747.605V103.143H734.748V90.2857ZM747.605 90.2857H760.462V103.143H747.605V90.2857ZM760.462 90.2857H773.319V103.143H760.462V90.2857ZM760.462 77.4286H773.319V90.2857H760.462V77.4286ZM773.319 77.4286H786.176V90.2857H773.319V77.4286ZM786.176 77.4286H799.033V90.2857H786.176V77.4286ZM786.176 90.2857H799.033V103.143H786.176V90.2857ZM773.319 90.2857H786.176V103.143H773.319V90.2857ZM773.319 103.143H786.176V116H773.319V103.143ZM786.176 103.143H799.033V116H786.176V103.143ZM799.033 90.2857H811.891V103.143H799.033V90.2857ZM799.033 103.143H811.891V116H799.033V103.143ZM799.033 116H811.891V128.857H799.033V116ZM799.033 128.857H811.891V141.714H799.033V128.857ZM799.033 141.714H811.891V154.571H799.033V141.714ZM799.033 154.571H811.891V167.429H799.033V154.571ZM799.033 167.429H811.891V180.286H799.033V167.429ZM799.033 180.286H811.891V193.143H799.033V180.286ZM786.176 180.286H799.033V193.143H786.176V180.286ZM786.176 167.429H799.033V180.286H786.176V167.429ZM786.176 154.571H799.033V167.429H786.176V154.571ZM786.176 141.714H799.033V154.571H786.176V141.714ZM786.176 128.857H799.033V141.714H786.176V128.857ZM786.176 116H799.033V128.857H786.176V116ZM773.319 167.429H786.176V180.286H773.319V167.429ZM773.319 180.286H786.176V193.143H773.319V180.286ZM786.176 193.143H799.033V206H786.176V193.143ZM773.319 193.143H786.176V206H773.319V193.143ZM760.462 193.143H773.319V206H760.462V193.143ZM760.462 180.286H773.319V193.143H760.462V180.286ZM747.605 193.143H760.462V206H747.605V193.143ZM734.748 193.143H747.605V206H734.748V193.143ZM734.748 180.286H747.605V193.143H734.748V180.286ZM747.605 180.286H760.462V193.143H747.605V180.286ZM747.605 167.429H760.462V180.286H747.605V167.429ZM734.748 167.429H747.605V180.286H734.748V167.429ZM721.891 180.286H734.748V193.143H721.891V180.286ZM721.891 167.429H734.748V180.286H721.891V167.429ZM721.891 154.571H734.748V167.429H721.891V154.571ZM721.891 141.714H734.748V154.571H721.891V141.714ZM721.891 128.857H734.748V141.714H721.891V128.857ZM721.891 116H734.748V128.857H721.891V116ZM721.891 103.143H734.748V116H721.891V103.143ZM734.748 103.143H747.605V116H734.748V103.143ZM721.891 90.2857H734.748V103.143H721.891V90.2857ZM747.605 103.143H760.462V116H747.605V103.143ZM734.748 116H747.605V128.857H734.748V116ZM734.748 128.857H747.605V141.714H734.748V128.857ZM734.748 141.714H747.605V154.571H734.748V141.714ZM734.748 154.571H747.605V167.429H734.748V154.571ZM824.781 77.4286H837.638V90.2857H824.781V77.4286ZM837.638 77.4286H850.496V90.2857H837.638V77.4286ZM837.638 90.2857H850.496V103.143H837.638V90.2857ZM837.638 103.143H850.496V116H837.638V103.143ZM837.638 116H850.496V128.857H837.638V116ZM824.781 116H837.638V128.857H824.781V116ZM824.781 103.143H837.638V116H824.781V103.143ZM824.781 90.2857H837.638V103.143H824.781V90.2857ZM824.781 128.857H837.638V141.714H824.781V128.857ZM824.781 141.714H837.638V154.571H824.781V141.714ZM824.781 154.571H837.638V167.429H824.781V154.571ZM837.638 141.714H850.496V154.571H837.638V141.714ZM837.638 128.857H850.496V141.714H837.638V128.857ZM837.638 154.571H850.496V167.429H837.638V154.571ZM837.638 167.429H850.496V180.286H837.638V167.429ZM824.781 180.286H837.638V193.143H824.781V180.286ZM824.781 167.429H837.638V180.286H824.781V167.429ZM824.781 193.143H837.638V206H824.781V193.143ZM837.638 193.143H850.496V206H837.638V193.143ZM837.638 180.286H850.496V193.143H837.638V180.286ZM850.496 77.4286H863.353V90.2857H850.496V77.4286ZM863.353 77.4286H876.21V90.2857H863.353V77.4286ZM876.21 77.4286H889.067V90.2857H876.21V77.4286ZM889.067 77.4286H901.924V90.2857H889.067V77.4286ZM876.21 90.2857H889.067V103.143H876.21V90.2857ZM863.353 90.2857H876.21V103.143H863.353V90.2857ZM850.496 90.2857H863.353V103.143H850.496V90.2857ZM850.496 141.714H863.353V154.571H850.496V141.714ZM863.353 128.857H876.21V141.714H863.353V128.857ZM850.496 128.857H863.353V141.714H850.496V128.857ZM863.353 141.714H876.21V154.571H863.353V141.714ZM889.067 90.2857H901.924V103.143H889.067V90.2857ZM876.21 128.857H889.067V141.714H876.21V128.857ZM876.21 141.714H889.067V154.571H876.21V141.714ZM966.109 77.4286H978.967V90.2857H966.109V77.4286ZM978.967 77.4286H991.824V90.2857H978.967V77.4286ZM978.967 90.2857H991.824V103.143H978.967V90.2857ZM978.967 103.143H991.824V116H978.967V103.143ZM978.967 116H991.824V128.857H978.967V116ZM966.109 103.143H978.967V116H966.109V103.143ZM966.109 90.2857H978.967V103.143H966.109V90.2857ZM966.109 116H978.967V128.857H966.109V116ZM966.109 128.857H978.967V141.714H966.109V128.857ZM966.109 154.571H978.967V167.429H966.109V154.571ZM966.109 141.714H978.967V154.571H966.109V141.714ZM978.967 128.857H991.824V141.714H978.967V128.857ZM978.967 141.714H991.824V154.571H978.967V141.714ZM978.967 154.571H991.824V167.429H978.967V154.571ZM978.967 167.429H991.824V180.286H978.967V167.429ZM966.109 167.429H978.967V180.286H966.109V167.429ZM966.109 193.143H978.967V206H966.109V193.143ZM978.967 193.143H991.824V206H978.967V193.143ZM978.967 180.286H991.824V193.143H978.967V180.286ZM966.109 180.286H978.967V193.143H966.109V180.286ZM1043.25 193.143H1056.11V206H1043.25V193.143ZM1043.25 180.286H1056.11V193.143H1043.25V180.286ZM1043.25 167.429H1056.11V180.286H1043.25V167.429ZM1043.25 154.571H1056.11V167.429H1043.25V154.571ZM1043.25 141.714H1056.11V154.571H1043.25V141.714ZM1043.25 128.857H1056.11V141.714H1043.25V128.857ZM1043.25 77.4286H1056.11V90.2857H1043.25V77.4286ZM1030.4 77.4286H1043.25V90.2857H1030.4V77.4286ZM1030.4 90.2857H1043.25V103.143H1030.4V90.2857ZM1030.4 103.143H1043.25V116H1030.4V103.143ZM1030.4 116H1043.25V128.857H1030.4V116ZM1043.25 116H1056.11V128.857H1043.25V116ZM1043.25 103.143H1056.11V116H1043.25V103.143ZM1043.25 90.2857H1056.11V103.143H1043.25V90.2857ZM1030.4 128.857H1043.25V141.714H1030.4V128.857ZM1030.4 180.286H1043.25V193.143H1030.4V180.286ZM1030.4 167.429H1043.25V180.286H1030.4V167.429ZM1030.4 154.571H1043.25V167.429H1030.4V154.571ZM1030.4 141.714H1043.25V154.571H1030.4V141.714ZM1030.4 193.143H1043.25V206H1030.4V193.143ZM1017.54 128.857H1030.4V141.714H1017.54V128.857ZM1004.68 128.857H1017.54V141.714H1004.68V128.857ZM991.824 128.857H1004.68V141.714H991.824V128.857ZM991.824 141.714H1004.68V154.571H991.824V141.714ZM1004.68 141.714H1017.54V154.571H1004.68V141.714ZM1017.54 141.714H1030.4V154.571H1017.54V141.714ZM1069 77.4286H1081.86V90.2857H1069V77.4286ZM1081.86 77.4286H1094.71V90.2857H1081.86V77.4286ZM1081.86 90.2857H1094.71V103.143H1081.86V90.2857ZM1081.86 103.143H1094.71V116H1081.86V103.143ZM1081.86 116H1094.71V128.857H1081.86V116ZM1069 116H1081.86V128.857H1069V116ZM1069 103.143H1081.86V116H1069V103.143ZM1069 90.2857H1081.86V103.143H1069V90.2857ZM1069 128.857H1081.86V141.714H1069V128.857ZM1069 141.714H1081.86V154.571H1069V141.714ZM1069 154.571H1081.86V167.429H1069V154.571ZM1081.86 141.714H1094.71V154.571H1081.86V141.714ZM1081.86 128.857H1094.71V141.714H1081.86V128.857ZM1081.86 154.571H1094.71V167.429H1081.86V154.571ZM1081.86 167.429H1094.71V180.286H1081.86V167.429ZM1069 180.286H1081.86V193.143H1069V180.286ZM1069 167.429H1081.86V180.286H1069V167.429ZM1069 193.143H1081.86V206H1069V193.143ZM1081.86 193.143H1094.71V206H1081.86V193.143ZM1081.86 180.286H1094.71V193.143H1081.86V180.286ZM1094.71 193.143H1107.57V206H1094.71V193.143ZM1107.57 193.143H1120.43V206H1107.57V193.143ZM1120.43 193.143H1133.29V206H1120.43V193.143ZM1120.43 180.286H1133.29V193.143H1120.43V180.286ZM1107.57 180.286H1120.43V193.143H1107.57V180.286ZM1094.71 180.286H1107.57V193.143H1094.71V180.286ZM1094.71 77.4286H1107.57V90.2857H1094.71V77.4286ZM1107.57 77.4286H1120.43V90.2857H1107.57V77.4286ZM1120.43 77.4286H1133.29V90.2857H1120.43V77.4286ZM1133.29 77.4286H1146.14V90.2857H1133.29V77.4286ZM1120.43 90.2857H1133.29V103.143H1120.43V90.2857ZM1107.57 90.2857H1120.43V103.143H1107.57V90.2857ZM1094.71 90.2857H1107.57V103.143H1094.71V90.2857ZM1094.71 141.714H1107.57V154.571H1094.71V141.714ZM1107.57 128.857H1120.43V141.714H1107.57V128.857ZM1094.71 128.857H1107.57V141.714H1094.71V128.857ZM1107.57 141.714H1120.43V154.571H1107.57V141.714ZM1133.29 90.2857H1146.14V103.143H1133.29V90.2857ZM1133.29 180.286H1146.14V193.143H1133.29V180.286ZM1133.29 193.143H1146.14V206H1133.29V193.143ZM1120.43 128.857H1133.29V141.714H1120.43V128.857ZM1120.43 141.714H1133.29V154.571H1120.43V141.714ZM1184.71 90.2857H1197.57V103.143H1184.71V90.2857ZM1197.57 90.2857H1210.43V103.143H1197.57V90.2857ZM1197.57 77.4286H1210.43V90.2857H1197.57V77.4286ZM1210.43 90.2857H1223.29V103.143H1210.43V90.2857ZM1210.43 103.143H1223.29V116H1210.43V103.143ZM1223.29 103.143H1236.14V116H1223.29V103.143ZM1197.57 103.143H1210.43V116H1197.57V103.143ZM1184.71 103.143H1197.57V116H1184.71V103.143ZM1171.86 103.143H1184.71V116H1171.86V103.143ZM1171.86 116H1184.71V128.857H1171.86V116ZM1159 116H1171.86V128.857H1159V116ZM1184.71 116H1197.57V128.857H1184.71V116ZM1171.86 128.857H1184.71V141.714H1171.86V128.857ZM1171.86 141.714H1184.71V154.571H1171.86V141.714ZM1171.86 154.571H1184.71V167.429H1171.86V154.571ZM1184.71 154.571H1197.57V167.429H1184.71V154.571ZM1197.57 154.571H1210.43V167.429H1197.57V154.571ZM1210.43 154.571H1223.29V167.429H1210.43V154.571ZM1223.29 154.571H1236.14V167.429H1223.29V154.571ZM1236.14 154.571H1249V167.429H1236.14V154.571ZM1236.14 141.714H1249V154.571H1236.14V141.714ZM1236.14 128.857H1249V141.714H1236.14V128.857ZM1236.14 116H1249V128.857H1236.14V116ZM1223.29 116H1236.14V128.857H1223.29V116ZM1210.43 116H1223.29V128.857H1210.43V116ZM1223.29 128.857H1236.14V141.714H1223.29V128.857ZM1223.29 141.714H1236.14V154.571H1223.29V141.714ZM1223.29 167.429H1236.14V180.286H1223.29V167.429ZM1236.14 167.429H1249V180.286H1236.14V167.429ZM1236.14 180.286H1249V193.143H1236.14V180.286ZM1236.14 193.143H1249V206H1236.14V193.143ZM1223.29 193.143H1236.14V206H1223.29V193.143ZM1223.29 180.286H1236.14V193.143H1223.29V180.286ZM1210.43 167.429H1223.29V180.286H1210.43V167.429ZM1197.57 167.429H1210.43V180.286H1197.57V167.429ZM1184.71 167.429H1197.57V180.286H1184.71V167.429ZM1171.86 167.429H1184.71V180.286H1171.86V167.429ZM1171.86 180.286H1184.71V193.143H1171.86V180.286ZM1171.86 193.143H1184.71V206H1171.86V193.143ZM1159 193.143H1171.86V206H1159V193.143ZM1159 180.286H1171.86V193.143H1159V180.286ZM1159 167.429H1171.86V180.286H1159V167.429ZM1159 154.571H1171.86V167.429H1159V154.571ZM1159 141.714H1171.86V154.571H1159V141.714ZM1159 128.857H1171.86V141.714H1159V128.857ZM1261.89 77.4286H1274.75V90.2857H1261.89V77.4286ZM1274.75 77.4286H1287.6V90.2857H1274.75V77.4286ZM1274.75 90.2857H1287.6V103.143H1274.75V90.2857ZM1274.75 103.143H1287.6V116H1274.75V103.143ZM1274.75 116H1287.6V128.857H1274.75V116ZM1261.89 116H1274.75V128.857H1261.89V116ZM1261.89 103.143H1274.75V116H1261.89V103.143ZM1261.89 90.2857H1274.75V103.143H1261.89V90.2857ZM1261.89 128.857H1274.75V141.714H1261.89V128.857ZM1261.89 141.714H1274.75V154.571H1261.89V141.714ZM1261.89 154.571H1274.75V167.429H1261.89V154.571ZM1274.75 141.714H1287.6V154.571H1274.75V141.714ZM1274.75 128.857H1287.6V141.714H1274.75V128.857ZM1274.75 154.571H1287.6V167.429H1274.75V154.571ZM1274.75 167.429H1287.6V180.286H1274.75V167.429ZM1261.89 180.286H1274.75V193.143H1261.89V180.286ZM1261.89 167.429H1274.75V180.286H1261.89V167.429ZM1261.89 193.143H1274.75V206H1261.89V193.143ZM1274.75 193.143H1287.6V206H1274.75V193.143ZM1274.75 180.286H1287.6V193.143H1274.75V180.286ZM1287.6 193.143H1300.46V206H1287.6V193.143ZM1300.46 193.143H1313.32V206H1300.46V193.143ZM1313.32 193.143H1326.18V206H1313.32V193.143ZM1313.32 180.286H1326.18V193.143H1313.32V180.286ZM1300.46 180.286H1313.32V193.143H1300.46V180.286ZM1287.6 180.286H1300.46V193.143H1287.6V180.286ZM1339 77.4286H1351.86V90.2857H1339V77.4286ZM1351.86 77.4286H1364.71V90.2857H1351.86V77.4286ZM1364.71 77.4286H1377.57V90.2857H1364.71V77.4286ZM1377.57 77.4286H1390.43V90.2857H1377.57V77.4286ZM1390.43 77.4286H1403.29V90.2857H1390.43V77.4286ZM1403.29 77.4286H1416.14V90.2857H1403.29V77.4286ZM1403.29 90.2857H1416.14V103.143H1403.29V90.2857ZM1390.43 90.2857H1403.29V103.143H1390.43V90.2857ZM1377.57 90.2857H1390.43V103.143H1377.57V90.2857ZM1364.71 90.2857H1377.57V103.143H1364.71V90.2857ZM1351.86 90.2857H1364.71V103.143H1351.86V90.2857ZM1339 90.2857H1351.86V103.143H1339V90.2857ZM1364.71 103.143H1377.57V116H1364.71V103.143ZM1364.71 116H1377.57V128.857H1364.71V116ZM1364.71 128.857H1377.57V141.714H1364.71V128.857ZM1364.71 141.714H1377.57V154.571H1364.71V141.714ZM1364.71 154.571H1377.57V167.429H1364.71V154.571ZM1364.71 167.429H1377.57V180.286H1364.71V167.429ZM1377.57 154.571H1390.43V167.429H1377.57V154.571ZM1377.57 141.714H1390.43V154.571H1377.57V141.714ZM1377.57 128.857H1390.43V141.714H1377.57V128.857ZM1377.57 116H1390.43V128.857H1377.57V116ZM1377.57 103.143H1390.43V116H1377.57V103.143ZM1377.57 167.429H1390.43V180.286H1377.57V167.429ZM1377.57 180.286H1390.43V193.143H1377.57V180.286ZM1377.57 193.143H1390.43V206H1377.57V193.143ZM1364.71 193.143H1377.57V206H1364.71V193.143ZM1364.71 180.286H1377.57V193.143H1364.71V180.286ZM1429 77.4286H1441.86V90.2857H1429V77.4286ZM1441.86 77.4286H1454.71V90.2857H1441.86V77.4286ZM1441.86 90.2857H1454.71V103.143H1441.86V90.2857ZM1441.86 103.143H1454.71V116H1441.86V103.143ZM1441.86 116H1454.71V128.857H1441.86V116ZM1429 103.143H1441.86V116H1429V103.143ZM1429 90.2857H1441.86V103.143H1429V90.2857ZM1429 116H1441.86V128.857H1429V116ZM1429 128.857H1441.86V141.714H1429V128.857ZM1429 154.571H1441.86V167.429H1429V154.571ZM1429 141.714H1441.86V154.571H1429V141.714ZM1441.86 128.857H1454.71V141.714H1441.86V128.857ZM1441.86 141.714H1454.71V154.571H1441.86V141.714ZM1441.86 154.571H1454.71V167.429H1441.86V154.571ZM1441.86 167.429H1454.71V180.286H1441.86V167.429ZM1429 167.429H1441.86V180.286H1429V167.429ZM1429 193.143H1441.86V206H1429V193.143ZM1441.86 193.143H1454.71V206H1441.86V193.143ZM1441.86 180.286H1454.71V193.143H1441.86V180.286ZM1429 180.286H1441.86V193.143H1429V180.286ZM1506.14 193.143H1519V206H1506.14V193.143ZM1506.14 180.286H1519V193.143H1506.14V180.286ZM1506.14 167.429H1519V180.286H1506.14V167.429ZM1506.14 154.571H1519V167.429H1506.14V154.571ZM1506.14 141.714H1519V154.571H1506.14V141.714ZM1506.14 128.857H1519V141.714H1506.14V128.857ZM1506.14 77.4286H1519V90.2857H1506.14V77.4286ZM1493.29 77.4286H1506.14V90.2857H1493.29V77.4286ZM1493.29 90.2857H1506.14V103.143H1493.29V90.2857ZM1493.29 103.143H1506.14V116H1493.29V103.143ZM1493.29 116H1506.14V128.857H1493.29V116ZM1506.14 116H1519V128.857H1506.14V116ZM1506.14 103.143H1519V116H1506.14V103.143ZM1506.14 90.2857H1519V103.143H1506.14V90.2857ZM1493.29 128.857H1506.14V141.714H1493.29V128.857ZM1493.29 180.286H1506.14V193.143H1493.29V180.286ZM1493.29 167.429H1506.14V180.286H1493.29V167.429ZM1493.29 154.571H1506.14V167.429H1493.29V154.571ZM1493.29 141.714H1506.14V154.571H1493.29V141.714ZM1493.29 193.143H1506.14V206H1493.29V193.143ZM1480.43 128.857H1493.29V141.714H1480.43V128.857ZM1467.57 128.857H1480.43V141.714H1467.57V128.857ZM1454.71 128.857H1467.57V141.714H1454.71V128.857ZM1454.71 141.714H1467.57V154.571H1454.71V141.714ZM1467.57 141.714H1480.43V154.571H1467.57V141.714ZM1480.43 141.714H1493.29V154.571H1480.43V141.714Z" fill="#E1CC6D"/>
</g>
<defs>
<clipPath id="clip0_161_0">
<rect width="1555" height="288" rx="100" fill="white"/>
</clipPath>
</defs>
</svg>
